<svg version="1.1" viewBox="0.0 0.0 960.0 720.0" fill="none" stroke="none" stroke-linecap="square" stroke-miterlimit="10" xmlns:xlink="http://www.w3.org/1999/xlink" xmlns="http://www.w3.org/2000/svg"><clipPath id="p.0"><path d="m0 0l960.0 0l0 720.0l-960.0 0l0 -720.0z" clip-rule="nonzero"/></clipPath><g clip-path="url(#p.0)"><path fill="#000000" fill-opacity="0.0" d="m0 0l960.0 0l0 720.0l-960.0 0z" fill-rule="evenodd"/><path fill="#000000" fill-opacity="0.0" d="m345.4987 355.03674l0 -347.2126" fill-rule="evenodd"/><path stroke="#3c78d8" stroke-width="8.0" stroke-linejoin="round" stroke-linecap="butt" stroke-dasharray="32.0,24.0" d="m345.4987 355.03674l0 -316.8926" fill-rule="evenodd"/><path fill="#3c78d8" stroke="#3c78d8" stroke-width="8.0" stroke-linecap="butt" d="m345.4987 11.824147c7.2680664 0 13.160004 5.8919325 13.160004 13.159999c0 7.2680664 -5.8919373 13.16 -13.160004 13.16c-7.2680664 0 -13.160004 -5.8919334 -13.160004 -13.16c0 -7.2680664 5.8919373 -13.159999 13.160004 -13.159999z" fill-rule="nonzero"/><path fill="#000000" fill-opacity="0.0" d="m347.16272 352.7454l197.57483 88.75592" fill-rule="evenodd"/><path stroke="#cc0000" stroke-width="4.0" stroke-linejoin="round" stroke-linecap="butt" d="m347.16272 352.7454l197.57483 88.75592" fill-rule="evenodd"/><path fill="#000000" fill-opacity="0.0" d="m544.73755 441.5013l-3.338623 -353.29132" fill-rule="evenodd"/><path stroke="#3c78d8" stroke-width="8.0" stroke-linejoin="round" stroke-linecap="butt" stroke-dasharray="32.0,24.0" d="m544.73755 441.5013l-3.052124 -322.9727" fill-rule="evenodd"/><path fill="#3c78d8" stroke="#3c78d8" stroke-width="8.0" stroke-linecap="butt" d="m541.43677 92.20979c7.2677 -0.06867981 13.215088 5.7673187 13.283752 13.035057c0.06866455 7.267746 -5.767334 13.215088 -13.035034 13.283768c-7.267761 0.06867981 -13.215088 -5.767311 -13.283813 -13.035057c-0.06866455 -7.2677383 5.767334 -13.215088 13.035095 -13.283768z" fill-rule="nonzero"/><path fill="#000000" fill-opacity="0.0" d="m548.09186 439.81366l354.99213 26.803131" fill-rule="evenodd"/><path stroke="#3c78d8" stroke-width="8.0" stroke-linejoin="round" stroke-linecap="butt" d="m548.09186 439.81366l324.75818 24.520386" fill-rule="evenodd"/><path fill="#3c78d8" stroke="#3c78d8" stroke-width="8.0" stroke-linecap="butt" d="m899.09534 466.31564c-0.5471802 7.2474365 -6.866028 12.679047 -14.113464 12.131836c-7.2474365 -0.5472107 -12.679016 -6.8659973 -12.131836 -14.113464c0.5472412 -7.2474365 6.866028 -12.679047 14.113464 -12.131836c7.2474365 0.5472107 12.679077 6.866028 12.131836 14.113464z" fill-rule="nonzero"/><path fill="#000000" fill-opacity="0.0" d="m340.46457 17.860893l540.85034 443.71652" fill-rule="evenodd"/><path stroke="#3c78d8" stroke-width="4.0" stroke-linejoin="round" stroke-linecap="butt" d="m340.46457 17.860893l540.85034 443.71652" fill-rule="evenodd"/><path fill="#000000" fill-opacity="0.0" d="m558.1391 426.41733l-211.02362 254.51968" fill-rule="evenodd"/><path stroke="#cc0000" stroke-width="8.0" stroke-linejoin="round" stroke-linecap="butt" d="m538.78705 449.75824l-191.67157 231.17877" fill-rule="evenodd"/><path fill="#cc0000" stroke="#cc0000" stroke-width="8.0" stroke-linecap="butt" d="m555.58606 429.4966c5.595093 4.638916 6.3702393 12.935242 1.7313232 18.530334c-4.638916 5.595093 -12.935242 6.3702393 -18.530334 1.7312927c-5.595154 -4.638916 -6.3702393 -12.935242 -1.7313232 -18.530334c4.638916 -5.595093 12.935242 -6.3702393 18.530334 -1.7312927z" fill-rule="nonzero"/><path fill="#000000" fill-opacity="0.0" d="m144.55905 170.52493l185.85828 0l0 58.173233l-185.85828 0z" fill-rule="evenodd"/><path fill="#1155cc" d="m177.49655 186.18243l5.625 0l0 12.3125l-5.5 0l0 0.84375q0 0.6875 0.84375 2.078125l3.78125 -3.78125l2.328125 2.65625q0.375 1.90625 -1.109375 1.40625l-3.078125 2.390625q1.53125 2.015625 5.328125 4.40625l-2.015625 3.65625q-4.59375 -2.96875 -6.078125 -5.578125l0 3.765625q0 2.53125 -2.15625 2.53125l-2.890625 0l-0.828125 -3.3125l2.59375 0q0 0.15625 -0.15625 0.15625l0 -11.21875l-2.09375 0l-3.28125 0l0 -12.3125l4.875 0l0.78125 -3.484375l3.296875 0.625q2.796875 1.046875 0.171875 1.921875l-0.4375 0.9375zm-2.6875 14.453125l-0.4375 1.078125q-0.125 7.265625 -6.296875 10.703125l-2.484375 -2.859375q4.859375 -2.96875 5.0625 -6.4375l-3.21875 0l0 -3.3125l4.015625 0l0.5 -0.515625l2.859375 1.34375zm-10.953125 -14.3125q-2.46875 4.0 -3.015625 4.78125l0.609375 0.5l3.328125 -5.1875l2.609375 1.796875q1.46875 1.46875 -0.421875 1.734375q-3.21875 4.78125 -4.328125 6.09375l1.5625 -0.140625l-0.734375 -1.46875l2.921875 -1.5625q2.296875 2.90625 3.375 6.328125l-3.375 1.5l-0.6875 -1.515625l-1.578125 0.21875l0 13.84375l-3.8125 0l0 -13.453125l-3.140625 0.1875q-1.453125 1.734375 -1.734375 -1.0625l-0.34375 -2.609375l2.921875 0l1.171875 -1.609375l-3.84375 -3.09375l1.921875 -2.90625l0.625 0.375q2.125 -3.296875 3.390625 -6.0l2.953125 1.46875q1.5 1.515625 -0.375 1.78125zm-8.140625 22.984375q1.09375 -5.15625 1.09375 -8.578125l3.015625 0.34375q2.9375 0.71875 0.671875 1.703125q0 3.78125 -1.234375 8.40625l-3.546875 -1.875zm16.53125 -18.625l7.4375 0l0 -1.1875l-7.4375 0l0 1.1875zm7.4375 4.5l0 -1.1875l-7.4375 0l0 1.1875l7.4375 0zm-12.71875 5.390625q1.140625 2.453125 1.59375 6.53125l-3.703125 0.78125q-0.171875 -2.8125 -1.203125 -6.53125l3.3125 -0.78125zm36.84375 -11.453125q1.8125 1.828125 1.8125 4.21875q0 3.609375 -3.546875 5.921875q-3.609375 2.359375 -5.828125 4.09375q-1.5625 1.203125 -2.546875 2.453125l12.546875 0l0 4.0625l-18.0625 0l0 -3.421875q0.859375 -1.859375 2.8125 -3.828125q2.296875 -2.28125 8.09375 -6.328125q2.09375 -1.421875 2.09375 -2.828125q0 -0.984375 -0.6875 -1.65625q-0.796875 -0.8125 -2.78125 -0.8125q-2.234375 0 -3.15625 0.9375q-1.203125 1.1875 -1.34375 4.3125l-4.703125 0q0.3125 -4.703125 2.484375 -6.875q2.453125 -2.4375 6.59375 -2.4375q4.015625 0 6.21875 2.1875zm22.125 3.28125q-2.109375 12.375 -5.25 15.53125q-1.828125 1.8125 -3.84375 1.8125q-2.265625 0 -3.59375 -1.3125q-3.1875 -3.203125 -3.1875 -7.96875q0 -5.765625 4.0625 -9.84375q4.453125 -4.4375 10.84375 -4.4375q5.765625 0 9.09375 3.3125q3.6875 3.703125 3.6875 8.71875q0 5.390625 -3.4375 8.84375q-2.21875 2.203125 -7.109375 4.4375l-3.71875 -3.703125q5.265625 -1.65625 7.640625 -4.046875q2.1875 -2.171875 2.1875 -5.28125q0 -3.734375 -2.4375 -6.15625q-2.421875 -2.421875 -5.234375 -2.296875l-0.03125 -0.015625q2.8125 1.171875 0.328125 2.40625zm-4.21875 -1.96875q-2.171875 0.5 -4.40625 2.75q-3.0625 3.046875 -3.0625 7.53125q0 2.609375 1.6875 4.28125q0.171875 0.1875 0.65625 0.1875q0.484375 0 1.15625 -0.6875q2.71875 -2.703125 3.96875 -14.0625zm47.46875 22.28125q-11.578125 -2.6875 -15.046875 -11.46875l-2.765625 0l0 6.8125l6.84375 -1.21875l0.796875 3.390625l-13.078125 2.65625q-0.234375 1.859375 -1.796875 0.296875l-1.140625 -3.890625l4.5625 -0.640625l0 -7.40625l-6.0 0l0 -3.6875l6.0 0l0 -13.5l19.3125 0l0 3.6875l-15.5 0l0 0.5625l13.75 0l0 3.6875l-13.75 0l0 0.8125l14.0 0l0 3.6875l-14.0 0l0 1.0625l19.25 0l0 3.6875l-12.5 0q0.265625 0.59375 1.765625 2.09375l3.9375 -3.0625l2.515625 1.78125q2.546875 1.8125 -0.546875 1.8125l-2.921875 1.984375q1.625 1.125 8.4375 2.9375l-2.125 3.921875zm15.109375 -19.0625q-4.671875 0.34375 -10.1875 0.34375l-1.140625 -3.8125q6.984375 0 9.84375 -0.1875q-0.984375 -2.734375 -1.625 -6.5625l3.609375 0q2.46875 0.546875 0.890625 1.90625q0.421875 1.953125 1.234375 4.296875q3.8125 -0.328125 7.546875 -1.21875l0.921875 4.09375q-4.359375 0.609375 -6.875 0.78125q1.953125 3.71875 7.546875 7.53125l-2.65625 3.203125q-4.953125 -2.28125 -9.3125 -2.28125q-3.859375 0 -5.28125 1.4375q-0.5625 0.546875 -0.5625 1.65625q0 0.984375 0.9375 1.90625q1.546875 1.5625 7.78125 1.5625l5.203125 0l-0.921875 4.0625l-5.28125 0q-6.765625 0 -9.59375 -2.8125q-2.0625 -2.078125 -2.0625 -4.71875q0 -2.640625 1.5625 -4.21875q2.453125 -2.4375 7.46875 -2.4375q4.953125 0 5.5 1.15625q-3.5625 -3.40625 -4.546875 -5.6875z" fill-rule="nonzero"/><path fill="#000000" fill-opacity="0.0" d="m144.55905 483.56955l185.85828 0l0 58.17325l-185.85828 0z" fill-rule="evenodd"/><path fill="#cc0000" d="m177.49655 499.22705l5.625 0l0 12.3125l-5.5 0l0 0.84375q0 0.6875 0.84375 2.078125l3.78125 -3.78125l2.328125 2.65625q0.375 1.90625 -1.109375 1.40625l-3.078125 2.390625q1.53125 2.015625 5.328125 4.40625l-2.015625 3.65625q-4.59375 -2.96875 -6.078125 -5.578125l0 3.765625q0 2.53125 -2.15625 2.53125l-2.890625 0l-0.828125 -3.3125l2.59375 0q0 0.15625 -0.15625 0.15625l0 -11.21875l-2.09375 0l-3.28125 0l0 -12.3125l4.875 0l0.78125 -3.484375l3.296875 0.625q2.796875 1.046875 0.171875 1.921875l-0.4375 0.9375zm-2.6875 14.453125l-0.4375 1.078125q-0.125 7.265625 -6.296875 10.703125l-2.484375 -2.859375q4.859375 -2.96875 5.0625 -6.4375l-3.21875 0l0 -3.3125l4.015625 0l0.5 -0.515625l2.859375 1.34375zm-10.953125 -14.3125q-2.46875 4.0 -3.015625 4.78125l0.609375 0.5l3.328125 -5.1875l2.609375 1.796875q1.46875 1.46875 -0.421875 1.734375q-3.21875 4.78125 -4.328125 6.09375l1.5625 -0.140625l-0.734375 -1.46875l2.921875 -1.5625q2.296875 2.90625 3.375 6.328125l-3.375 1.5l-0.6875 -1.515625l-1.578125 0.21875l0 13.84375l-3.8125 0l0 -13.453125l-3.140625 0.1875q-1.453125 1.734375 -1.734375 -1.0625l-0.34375 -2.609375l2.921875 0l1.171875 -1.609375l-3.84375 -3.09375l1.921875 -2.90625l0.625 0.375q2.125 -3.296875 3.390625 -6.0l2.953125 1.46875q1.5 1.515625 -0.375 1.78125zm-8.140625 22.984375q1.09375 -5.15625 1.09375 -8.578125l3.015625 0.34375q2.9375 0.71875 0.671875 1.703125q0 3.78125 -1.234375 8.40625l-3.546875 -1.875zm16.53125 -18.625l7.4375 0l0 -1.1875l-7.4375 0l0 1.1875zm7.4375 4.5l0 -1.1875l-7.4375 0l0 1.1875l7.4375 0zm-12.71875 5.390625q1.140625 2.453125 1.59375 6.53125l-3.703125 0.78125q-0.171875 -2.8125 -1.203125 -6.53125l3.3125 -0.78125zm33.53125 -13.640625l0 22.9375l-4.1875 0l0 -16.625l-6.25 0l0 -3.328125q5.765625 0.125 7.390625 -2.984375l3.046875 0zm25.4375 5.46875q-2.109375 12.375 -5.25 15.53125q-1.828125 1.8125 -3.84375 1.8125q-2.265625 0 -3.59375 -1.3125q-3.1875 -3.203125 -3.1875 -7.96875q0 -5.765625 4.0625 -9.84375q4.453125 -4.4375 10.84375 -4.4375q5.765625 0 9.09375 3.3125q3.6875 3.703125 3.6875 8.71875q0 5.390625 -3.4375 8.84375q-2.21875 2.203125 -7.109375 4.4375l-3.71875 -3.703125q5.265625 -1.65625 7.640625 -4.046875q2.1875 -2.171875 2.1875 -5.28125q0 -3.734375 -2.4375 -6.15625q-2.421875 -2.421875 -5.234375 -2.296875l-0.03125 -0.015625q2.8125 1.171875 0.328125 2.40625zm-4.21875 -1.96875q-2.171875 0.5 -4.40625 2.75q-3.0625 3.046875 -3.0625 7.53125q0 2.609375 1.6875 4.28125q0.171875 0.1875 0.65625 0.1875q0.484375 0 1.15625 -0.6875q2.71875 -2.703125 3.96875 -14.0625zm47.46875 22.28125q-11.578125 -2.6875 -15.046875 -11.46875l-2.765625 0l0 6.8125l6.84375 -1.21875l0.796875 3.390625l-13.078125 2.65625q-0.234375 1.859375 -1.796875 0.296875l-1.140625 -3.890625l4.5625 -0.640625l0 -7.40625l-6.0 0l0 -3.6875l6.0 0l0 -13.5l19.3125 0l0 3.6875l-15.5 0l0 0.5625l13.75 0l0 3.6875l-13.75 0l0 0.8125l14.0 0l0 3.6875l-14.0 0l0 1.0625l19.25 0l0 3.6875l-12.5 0q0.265625 0.59375 1.765625 2.09375l3.9375 -3.0625l2.515625 1.78125q2.546875 1.8125 -0.546875 1.8125l-2.921875 1.984375q1.625 1.125 8.4375 2.9375l-2.125 3.921875zm15.109375 -19.0625q-4.671875 0.34375 -10.1875 0.34375l-1.140625 -3.8125q6.984375 0 9.84375 -0.1875q-0.984375 -2.734375 -1.625 -6.5625l3.609375 0q2.46875 0.546875 0.890625 1.90625q0.421875 1.953125 1.234375 4.296875q3.8125 -0.328125 7.546875 -1.21875l0.921875 4.09375q-4.359375 0.609375 -6.875 0.78125q1.953125 3.71875 7.546875 7.53125l-2.65625 3.203125q-4.953125 -2.28125 -9.3125 -2.28125q-3.859375 0 -5.28125 1.4375q-0.5625 0.546875 -0.5625 1.65625q0 0.984375 0.9375 1.90625q1.546875 1.5625 7.78125 1.5625l5.203125 0l-0.921875 4.0625l-5.28125 0q-6.765625 0 -9.59375 -2.8125q-2.0625 -2.078125 -2.0625 -4.71875q0 -2.640625 1.5625 -4.21875q2.453125 -2.4375 7.46875 -2.4375q4.953125 0 5.5 1.15625q-3.5625 -3.40625 -4.546875 -5.6875z" fill-rule="nonzero"/><path fill="#000000" fill-opacity="0.0" d="m344.02698 487.8591l0 0c46.00479 -9.60318 92.60953 10.540253 115.34366 49.85373l-94.4415 52.36566z" fill-rule="evenodd"/><path fill="#000000" fill-opacity="0.0" d="m344.02698 487.8591l0 0c46.00479 -9.60318 92.60953 10.540253 115.34366 49.85373" fill-rule="evenodd"/><path stroke="#cc0000" stroke-width="4.0" stroke-linejoin="round" stroke-linecap="butt" stroke-dasharray="16.0,12.0,4.0,12.0" d="m344.02698 487.8591l0 0c46.00479 -9.60318 92.60953 10.540253 115.34366 49.85373" fill-rule="evenodd"/><path fill="#000000" fill-opacity="0.0" d="m347.15485 436.46457l197.60632 0l0 48.472443l-197.60632 0z" fill-rule="evenodd"/><path fill="#cc0000" d="m374.1236 450.44208l4.21875 0l0 9.25l-4.125 0l0 0.625q0 0.515625 0.625 1.546875l2.84375 -2.84375l1.75 2.0q0.28125 1.453125 -0.84375 1.078125l-2.296875 1.78125q1.140625 1.5 4.0 3.296875l-1.53125 2.75q-3.453125 -2.21875 -4.546875 -4.15625l0 2.796875q0 1.90625 -1.625 1.90625l-2.171875 0l-0.625 -2.5l1.953125 0q0 0.125 -0.125 0.125l0 -8.40625l-1.5625 0l-2.46875 0l0 -9.25l3.65625 0l0.578125 -2.609375l2.5 0.46875q2.109375 0.796875 0.125 1.453125l-0.328125 0.6875zm-2.015625 10.84375l-0.328125 0.8125q-0.09375 5.453125 -4.734375 8.046875l-1.875 -2.171875q3.65625 -2.234375 3.796875 -4.8125l-2.40625 0l0 -2.5l3.015625 0l0.375 -0.375l2.15625 1.0zm-8.21875 -10.71875q-1.84375 3.0 -2.25 3.5625l0.4375 0.375l2.5 -3.890625l1.96875 1.34375q1.109375 1.125 -0.3125 1.328125q-2.421875 3.578125 -3.25 4.546875l1.140625 -0.109375l-0.546875 -1.09375l2.21875 -1.171875q1.71875 2.1875 2.53125 4.765625l-2.546875 1.125l-0.515625 -1.140625l-1.171875 0.171875l0 10.375l-2.875 0l0 -10.09375l-2.34375 0.140625q-1.09375 1.3125 -1.3125 -0.796875l-0.265625 -1.96875l2.203125 0l0.875 -1.1875l-2.890625 -2.328125l1.453125 -2.1875l0.46875 0.28125q1.59375 -2.484375 2.546875 -4.5l2.21875 1.109375q1.140625 1.140625 -0.28125 1.34375zm-6.109375 17.234375q0.8125 -3.875 0.8125 -6.453125l2.28125 0.25q2.21875 0.5625 0.5 1.296875q0 2.828125 -0.921875 6.3125l-2.671875 -1.40625zm12.40625 -13.984375l5.5625 0l0 -0.875l-5.5625 0l0 0.875zm5.5625 3.375l0 -0.875l-5.5625 0l0 0.875l5.5625 0zm-9.53125 4.046875q0.859375 1.84375 1.203125 4.90625l-2.796875 0.59375q-0.125 -2.125 -0.90625 -4.921875l2.5 -0.578125z" fill-rule="nonzero"/><path fill="#cc0000" d="m389.60797 468.50458l-3.296875 0l0 -12.40625q-1.8125 1.6875 -4.25 2.484375l0 -2.984375q1.28125 -0.421875 2.796875 -1.59375q1.515625 -1.1875 2.078125 -2.75l2.671875 0l0 17.25z" fill-rule="nonzero"/><path fill="#cc0000" d="m407.39313 455.11395q-1.578125 9.28125 -3.9375 11.65625q-1.375 1.359375 -2.890625 1.359375q-1.703125 0 -2.703125 -0.984375q-2.390625 -2.40625 -2.390625 -5.984375q0 -4.328125 3.046875 -7.390625q3.34375 -3.328125 8.140625 -3.328125q4.328125 0 6.828125 2.484375q2.765625 2.78125 2.765625 6.546875q0 4.046875 -2.578125 6.640625q-1.65625 1.65625 -5.34375 3.328125l-2.796875 -2.796875q3.953125 -1.234375 5.734375 -3.03125q1.640625 -1.625 1.640625 -3.953125q0 -2.796875 -1.828125 -4.609375q-1.8125 -1.8125 -3.921875 -1.734375l-0.015625 -0.015625q2.125 0.875 0.25 1.8125zm-3.1875 -1.46875q-1.609375 0.375 -3.28125 2.0625q-2.296875 2.28125 -2.296875 5.640625q0 1.953125 1.265625 3.203125q0.125 0.140625 0.484375 0.140625q0.359375 0 0.859375 -0.515625q2.03125 -2.03125 2.96875 -10.53125zm23.671875 7.390625l4.25 0l0 -3.96875l-4.25 0l0 3.96875zm4.25 3.71875l0 -0.9375l-4.25 0l0 1.03125l-2.875 0l0 -10.5625l10.0 0l0 10.46875l-2.875 0zm-9.21875 1.625l14.09375 0l0 -14.28125l-14.09375 0l0 14.28125zm14.09375 3.625l0 -0.84375l-14.09375 0l0 1.3125l-2.875 0l0 -21.15625l19.84375 0l0 20.6875l-2.875 0zm24.84375 -8.84375q2.359375 3.515625 4.03125 8.015625l-2.875 1.515625q-0.46875 -1.40625 -0.625 -1.859375l-7.28125 1.015625q-0.171875 1.28125 -1.34375 0.109375l-1.109375 -3.203125l1.921875 0l1.96875 -7.25l-2.9375 0l0 -3.0625l11.5 0l0 3.0625l-5.390625 0l-2.28125 7.09375l3.9375 -0.34375q-0.6875 -1.78125 -1.859375 -3.78125l2.34375 -1.3125zm2.125 -8.40625l-9.53125 0l0 -3.0625l9.53125 0l0 3.0625zm-13.28125 6.84375l-0.875 0l0 1.0625l0.875 0l0 -1.0625zm-3.46875 0l-0.875 0l0 1.0625l0.875 0l0 -1.0625zm0 -2.5l0 -0.875l-0.875 0l0 0.875l0.875 0zm3.46875 0l0 -0.875l-0.875 0l0 0.875l0.875 0zm3.625 9.53125l-4.5 0l0 4.03125l-2.59375 0l0 -4.03125l-4.5 0l0 -2.78125l4.5 0l0 -0.6875l-1.28125 0l-2.1875 0l0 -9.4375l3.46875 0l0 -0.6875l-3.9375 0l0 -2.78125l3.9375 0l0 -2.34375l2.03125 0q2.046875 0.25 0.5625 1.3125l0 1.03125l3.84375 0l0 2.78125l-3.84375 0l0 0.6875l3.46875 0l0 9.4375l-3.46875 0l0 0.6875l4.5 0l0 2.78125zm32.8125 1.65625q0 2.09375 -2.0 2.09375l-2.75 0l-0.578125 -2.78125l2.578125 0q0 0.125 -0.125 0.125l0 -2.6875l-10.5625 0q-0.171875 3.0625 -4.453125 5.90625l-1.796875 -2.640625q3.5 -1.90625 3.5 -5.640625l0 -5.546875q-0.515625 0.515625 -2.625 1.640625l-1.375 -2.765625q4.765625 -2.671875 7.015625 -8.265625l2.515625 0.609375q1.1875 1.1875 -0.1875 1.375l0.046875 -0.109375l5.078125 0l0.59375 -0.828125l2.21875 1.40625q1.25 1.25 -0.53125 1.4375l-1.96875 2.296875l5.40625 0l0 14.375zm-9.625 -11.875l-3.6875 0l0 1.71875l3.6875 0l0 -1.71875zm2.875 0l0 1.71875l3.875 0l0 -1.71875l-3.875 0zm-2.875 4.21875l-3.6875 0l0 1.90625l3.6875 0l0 -1.90625zm2.875 0l0 1.90625l3.875 0l0 -1.90625l-3.875 0zm-0.765625 -8.53125l-4.484375 0q-0.453125 0.90625 -1.21875 1.8125l4.3125 0l1.390625 -1.8125zm32.71875 18.609375q-5.046875 -0.625 -8.34375 -2.3125q-3.140625 1.875 -8.21875 2.390625l-1.125 -2.9375q4.78125 -0.421875 6.890625 -1.484375q-1.03125 -1.03125 -2.125 -2.546875l-2.875 0l0 -2.5l11.265625 0l0.453125 -0.453125l1.8125 1.453125q1.015625 1.53125 -0.546875 1.34375q-1.453125 1.71875 -2.96875 2.78125q2.3125 0.78125 6.46875 1.109375l-0.6875 3.15625zm-8.421875 -20.171875l8.4375 0l0 2.78125l-16.59375 0l0 7.75q0 5.40625 -2.734375 9.5625l-2.484375 -2.078125q2.34375 -3.15625 2.34375 -7.859375l0 -10.15625l7.875 0l0 -2.4375l2.59375 0q2.046875 0.25 0.5625 1.3125l0 1.125zm0.09375 14.40625q0.78125 -0.515625 1.390625 -1.125l-2.609375 0q0.234375 0.265625 1.21875 1.125zm3.84375 -3.9375l-2.875 0l0 -0.5625l-3.03125 0l0 0.65625l-2.875 0l0 -3.75l-3.75 0l0 -2.5l3.75 0l0 -1.78125l2.3125 0q2.046875 0.25 0.5625 1.3125l0 0.46875l3.03125 0l0 -1.96875l2.3125 0q2.046875 0.25 0.5625 1.3125l0 0.65625l4.5 0l0 2.5l-4.5 0l0 3.65625zm-2.875 -3.65625l-3.03125 0l0 0.59375l3.03125 0l0 -0.59375z" fill-rule="nonzero"/><path fill="#000000" fill-opacity="0.0" d="m343.81366 339.3491l3.3700562 346.61417" fill-rule="evenodd"/><path stroke="#cc0000" stroke-width="8.0" stroke-linejoin="round" stroke-linecap="butt" stroke-dasharray="32.0,24.0" d="m344.10843 369.66766l3.0752869 316.2956" fill-rule="evenodd"/><path fill="#cc0000" stroke="#cc0000" stroke-width="8.0" stroke-linecap="butt" d="m343.85254 343.3489c7.2677307 -0.07067871 13.216675 5.7637024 13.287323 13.031403c0.07064819 7.2677307 -5.7637024 13.216675 -13.031433 13.287323c-7.2677307 0.07067871 -13.216644 -5.7637024 -13.287323 -13.031403c-0.07064819 -7.2677307 5.7637024 -13.216675 13.031433 -13.287323z" fill-rule="nonzero"/><path fill="#000000" fill-opacity="0.0" d="m543.93353 361.55136l0 0c41.286987 0.51760864 75.36597 37.355072 78.45508 84.80554l-79.32037 6.858307z" fill-rule="evenodd"/><path fill="#000000" fill-opacity="0.0" d="m543.93353 361.55136l0 0c41.286987 0.51760864 75.36597 37.355072 78.45508 84.80554" fill-rule="evenodd"/><path stroke="#1155cc" stroke-width="4.0" stroke-linejoin="round" stroke-linecap="butt" stroke-dasharray="16.0,12.0,4.0,12.0" d="m543.93353 361.55136l0 0c41.286987 0.51760864 75.36597 37.355072 78.45508 84.80554" fill-rule="evenodd"/><path fill="#000000" fill-opacity="0.0" d="m541.3989 313.0735l197.60632 0l0 48.472443l-197.60632 0z" fill-rule="evenodd"/><path fill="#3c78d8" d="m568.3677 327.051l4.21875 0l0 9.25l-4.125 0l0 0.625q0 0.515625 0.625 1.546875l2.84375 -2.84375l1.75 2.0q0.28125 1.453125 -0.84375 1.078125l-2.296875 1.78125q1.140625 1.5 4.0 3.296875l-1.53125 2.75q-3.453125 -2.21875 -4.546875 -4.15625l0 2.796875q0 1.90625 -1.625 1.90625l-2.171875 0l-0.625 -2.5l1.953125 0q0 0.125 -0.125 0.125l0 -8.40625l-1.5625 0l-2.46875 0l0 -9.25l3.65625 0l0.578125 -2.609375l2.5 0.46875q2.109375 0.796875 0.125 1.453125l-0.328125 0.6875zm-2.015625 10.84375l-0.328125 0.8125q-0.09375 5.453125 -4.734375 8.046875l-1.875 -2.171875q3.65625 -2.234375 3.796875 -4.8125l-2.40625 0l0 -2.5l3.015625 0l0.375 -0.375l2.15625 1.0zm-8.21875 -10.71875q-1.84375 3.0 -2.25 3.5625l0.4375 0.375l2.5 -3.890625l1.96875 1.34375q1.109375 1.125 -0.3125 1.328125q-2.421875 3.578125 -3.25 4.546875l1.140625 -0.109375l-0.546875 -1.09375l2.21875 -1.171875q1.71875 2.1875 2.53125 4.765625l-2.546875 1.125l-0.515625 -1.140625l-1.171875 0.171875l0 10.375l-2.875 0l0 -10.09375l-2.34375 0.140625q-1.09375 1.3125 -1.3125 -0.796875l-0.265625 -1.96875l2.203125 0l0.875 -1.1875l-2.890625 -2.328125l1.453125 -2.1875l0.46875 0.28125q1.59375 -2.484375 2.546875 -4.5l2.21875 1.109375q1.140625 1.140625 -0.28125 1.34375zm-6.109375 17.234375q0.8125 -3.875 0.8125 -6.453125l2.28125 0.25q2.21875 0.5625 0.5 1.296875q0 2.828125 -0.921875 6.3125l-2.671875 -1.40625zm12.40625 -13.984375l5.5625 0l0 -0.875l-5.5625 0l0 0.875zm5.5625 3.375l0 -0.875l-5.5625 0l0 0.875l5.5625 0zm-9.53125 4.046875q0.859375 1.84375 1.203125 4.90625l-2.796875 0.59375q-0.125 -2.125 -0.90625 -4.921875l2.5 -0.578125z" fill-rule="nonzero"/><path fill="#3c78d8" d="m586.53955 342.051l0 3.0625l-11.546875 0q0.1875 -1.734375 1.125 -3.28125q0.9375 -1.5625 3.703125 -4.125q2.234375 -2.078125 2.734375 -2.8125q0.6875 -1.015625 0.6875 -2.015625q0 -1.109375 -0.59375 -1.6875q-0.59375 -0.59375 -1.640625 -0.59375q-1.03125 0 -1.640625 0.625q-0.609375 0.609375 -0.703125 2.046875l-3.28125 -0.328125q0.296875 -2.71875 1.84375 -3.890625q1.546875 -1.1875 3.859375 -1.1875q2.546875 0 4.0 1.375q1.453125 1.359375 1.453125 3.40625q0 1.15625 -0.421875 2.203125q-0.40625 1.046875 -1.3125 2.203125q-0.59375 0.765625 -2.15625 2.203125q-1.5625 1.421875 -1.984375 1.890625q-0.40625 0.46875 -0.65625 0.90625l6.53125 0z" fill-rule="nonzero"/><path fill="#3c78d8" d="m601.6372 331.72287q-1.578125 9.28125 -3.9375 11.65625q-1.375 1.359375 -2.890625 1.359375q-1.703125 0 -2.703125 -0.984375q-2.390625 -2.40625 -2.390625 -5.984375q0 -4.328125 3.046875 -7.390625q3.34375 -3.328125 8.140625 -3.328125q4.328125 0 6.828125 2.484375q2.765625 2.78125 2.765625 6.546875q0 4.046875 -2.578125 6.640625q-1.65625 1.65625 -5.34375 3.328125l-2.796875 -2.796875q3.953125 -1.234375 5.734375 -3.03125q1.640625 -1.625 1.640625 -3.953125q0 -2.796875 -1.828125 -4.609375q-1.8125 -1.8125 -3.921875 -1.734375l-0.015625 -0.015625q2.125 0.875 0.25 1.8125zm-3.1875 -1.46875q-1.609375 0.375 -3.28125 2.0625q-2.296875 2.28125 -2.296875 5.640625q0 1.953125 1.265625 3.203125q0.125 0.140625 0.484375 0.140625q0.359375 0 0.859375 -0.515625q2.03125 -2.03125 2.96875 -10.53125zm23.671875 7.390625l4.25 0l0 -3.96875l-4.25 0l0 3.96875zm4.25 3.71875l0 -0.9375l-4.25 0l0 1.03125l-2.875 0l0 -10.5625l10.0 0l0 10.46875l-2.875 0zm-9.21875 1.625l14.09375 0l0 -14.28125l-14.09375 0l0 14.28125zm14.09375 3.625l0 -0.84375l-14.09375 0l0 1.3125l-2.875 0l0 -21.15625l19.84375 0l0 20.6875l-2.875 0zm24.84375 -8.84375q2.359375 3.515625 4.03125 8.015625l-2.875 1.515625q-0.46875 -1.40625 -0.625 -1.859375l-7.28125 1.015625q-0.171875 1.28125 -1.34375 0.109375l-1.109375 -3.203125l1.921875 0l1.96875 -7.25l-2.9375 0l0 -3.0625l11.5 0l0 3.0625l-5.390625 0l-2.28125 7.09375l3.9375 -0.34375q-0.6875 -1.78125 -1.859375 -3.78125l2.34375 -1.3125zm2.125 -8.40625l-9.53125 0l0 -3.0625l9.53125 0l0 3.0625zm-13.28125 6.84375l-0.875 0l0 1.0625l0.875 0l0 -1.0625zm-3.46875 0l-0.875 0l0 1.0625l0.875 0l0 -1.0625zm0 -2.5l0 -0.875l-0.875 0l0 0.875l0.875 0zm3.46875 0l0 -0.875l-0.875 0l0 0.875l0.875 0zm3.625 9.53125l-4.5 0l0 4.03125l-2.59375 0l0 -4.03125l-4.5 0l0 -2.78125l4.5 0l0 -0.6875l-1.28125 0l-2.1875 0l0 -9.4375l3.46875 0l0 -0.6875l-3.9375 0l0 -2.78125l3.9375 0l0 -2.34375l2.03125 0q2.046875 0.25 0.5625 1.3125l0 1.03125l3.84375 0l0 2.78125l-3.84375 0l0 0.6875l3.46875 0l0 9.4375l-3.46875 0l0 0.6875l4.5 0l0 2.78125zm32.8125 1.65625q0 2.09375 -2.0 2.09375l-2.75 0l-0.578125 -2.78125l2.578125 0q0 0.125 -0.125 0.125l0 -2.6875l-10.5625 0q-0.171875 3.0625 -4.453125 5.90625l-1.796875 -2.640625q3.5 -1.90625 3.5 -5.640625l0 -5.546875q-0.515625 0.515625 -2.625 1.640625l-1.375 -2.765625q4.765625 -2.671875 7.015625 -8.265625l2.515625 0.609375q1.1875 1.1875 -0.1875 1.375l0.046875 -0.109375l5.078125 0l0.59375 -0.828125l2.21875 1.40625q1.25 1.25 -0.53125 1.4375l-1.96875 2.296875l5.40625 0l0 14.375zm-9.625 -11.875l-3.6875 0l0 1.71875l3.6875 0l0 -1.71875zm2.875 0l0 1.71875l3.875 0l0 -1.71875l-3.875 0zm-2.875 4.21875l-3.6875 0l0 1.90625l3.6875 0l0 -1.90625zm2.875 0l0 1.90625l3.875 0l0 -1.90625l-3.875 0zm-0.765625 -8.53125l-4.484375 0q-0.453125 0.90625 -1.21875 1.8125l4.3125 0l1.390625 -1.8125zm32.71875 18.609375q-5.046875 -0.625 -8.34375 -2.3125q-3.140625 1.875 -8.21875 2.390625l-1.125 -2.9375q4.78125 -0.421875 6.890625 -1.484375q-1.03125 -1.03125 -2.125 -2.546875l-2.875 0l0 -2.5l11.265625 0l0.453125 -0.453125l1.8125 1.453125q1.015625 1.53125 -0.546875 1.34375q-1.453125 1.71875 -2.96875 2.78125q2.3125 0.78125 6.46875 1.109375l-0.6875 3.15625zm-8.421875 -20.171875l8.4375 0l0 2.78125l-16.59375 0l0 7.75q0 5.40625 -2.734375 9.5625l-2.484375 -2.078125q2.34375 -3.15625 2.34375 -7.859375l0 -10.15625l7.875 0l0 -2.4375l2.59375 0q2.046875 0.25 0.5625 1.3125l0 1.125zm0.09375 14.40625q0.78125 -0.515625 1.390625 -1.125l-2.609375 0q0.234375 0.265625 1.21875 1.125zm3.84375 -3.9375l-2.875 0l0 -0.5625l-3.03125 0l0 0.65625l-2.875 0l0 -3.75l-3.75 0l0 -2.5l3.75 0l0 -1.78125l2.3125 0q2.046875 0.25 0.5625 1.3125l0 0.46875l3.03125 0l0 -1.96875l2.3125 0q2.046875 0.25 0.5625 1.3125l0 0.65625l4.5 0l0 2.5l-4.5 0l0 3.65625zm-2.875 -3.65625l-3.03125 0l0 0.59375l3.03125 0l0 -0.59375z" fill-rule="nonzero"/><path fill="#000000" fill-opacity="0.0" d="m608.3727 237.20998c0 -36.19301 60.922485 -48.55905 97.11548 -48.55905" fill-rule="evenodd"/><path stroke="#3c78d8" stroke-width="2.0" stroke-linejoin="round" stroke-linecap="butt" d="m608.3727 237.20998c0 -36.19301 60.922485 -48.55905 97.11548 -48.55905" fill-rule="evenodd"/><path fill="#000000" fill-opacity="0.0" d="m717.20996 178.60367l243.90552 0l0 42.015747l-243.90552 0z" fill-rule="evenodd"/><path fill="#000000" fill-opacity="0.0" d="m705.48816 170.06036l175.84253 0l0 48.472443l-175.84253 0z" fill-rule="evenodd"/><path fill="#3c78d8" d="m732.4569 184.03787l4.21875 0l0 9.25l-4.125 0l0 0.625q0 0.515625 0.625 1.546875l2.84375 -2.84375l1.75 2.0q0.28125 1.453125 -0.84375 1.078125l-2.296875 1.78125q1.140625 1.5 4.0 3.296875l-1.53125 2.75q-3.453125 -2.21875 -4.546875 -4.15625l0 2.796875q0 1.90625 -1.625 1.90625l-2.171875 0l-0.625 -2.5l1.953125 0q0 0.125 -0.125 0.125l0 -8.40625l-1.5625 0l-2.46875 0l0 -9.25l3.65625 0l0.578125 -2.609375l2.5 0.46875q2.109375 0.796875 0.125 1.453125l-0.328125 0.6875zm-2.015625 10.84375l-0.328125 0.8125q-0.09375 5.453125 -4.734375 8.046875l-1.875 -2.171875q3.65625 -2.234375 3.796875 -4.8125l-2.40625 0l0 -2.5l3.015625 0l0.375 -0.375l2.15625 1.0zm-8.21875 -10.71875q-1.84375 3.0 -2.25 3.5625l0.4375 0.375l2.5 -3.890625l1.96875 1.34375q1.109375 1.125 -0.3125 1.328125q-2.421875 3.578125 -3.25 4.546875l1.140625 -0.109375l-0.546875 -1.09375l2.21875 -1.171875q1.71875 2.1875 2.53125 4.765625l-2.546875 1.125l-0.515625 -1.140625l-1.171875 0.171875l0 10.375l-2.875 0l0 -10.09375l-2.34375 0.140625q-1.09375 1.3125 -1.3125 -0.796875l-0.265625 -1.96875l2.203125 0l0.875 -1.1875l-2.890625 -2.328125l1.453125 -2.1875l0.46875 0.28125q1.59375 -2.484375 2.546875 -4.5l2.21875 1.109375q1.140625 1.140625 -0.28125 1.34375zm-6.109375 17.234375q0.8125 -3.875 0.8125 -6.453125l2.28125 0.25q2.21875 0.5625 0.5 1.296875q0 2.828125 -0.921875 6.3125l-2.671875 -1.40625zm12.40625 -13.984375l5.5625 0l0 -0.875l-5.5625 0l0 0.875zm5.5625 3.375l0 -0.875l-5.5625 0l0 0.875l5.5625 0zm-9.53125 4.046875q0.859375 1.84375 1.203125 4.90625l-2.796875 0.59375q-0.125 -2.125 -0.90625 -4.921875l2.5 -0.578125z" fill-rule="nonzero"/><path fill="#3c78d8" d="m750.6288 199.03787l0 3.0625l-11.546875 0q0.1875 -1.734375 1.125 -3.28125q0.9375 -1.5625 3.703125 -4.125q2.234375 -2.078125 2.734375 -2.8125q0.6875 -1.015625 0.6875 -2.015625q0 -1.109375 -0.59375 -1.6875q-0.59375 -0.59375 -1.640625 -0.59375q-1.03125 0 -1.640625 0.625q-0.609375 0.609375 -0.703125 2.046875l-3.28125 -0.328125q0.296875 -2.71875 1.84375 -3.890625q1.546875 -1.1875 3.859375 -1.1875q2.546875 0 4.0 1.375q1.453125 1.359375 1.453125 3.40625q0 1.15625 -0.421875 2.203125q-0.40625 1.046875 -1.3125 2.203125q-0.59375 0.765625 -2.15625 2.203125q-1.5625 1.421875 -1.984375 1.890625q-0.40625 0.46875 -0.65625 0.90625l6.53125 0z" fill-rule="nonzero"/><path fill="#3c78d8" d="m765.72644 188.70975q-1.578125 9.28125 -3.9375 11.65625q-1.375 1.359375 -2.890625 1.359375q-1.703125 0 -2.703125 -0.984375q-2.390625 -2.40625 -2.390625 -5.984375q0 -4.328125 3.046875 -7.390625q3.34375 -3.328125 8.140625 -3.328125q4.328125 0 6.828125 2.484375q2.765625 2.78125 2.765625 6.546875q0 4.046875 -2.578125 6.640625q-1.65625 1.65625 -5.34375 3.328125l-2.796875 -2.796875q3.953125 -1.234375 5.734375 -3.03125q1.640625 -1.625 1.640625 -3.953125q0 -2.796875 -1.828125 -4.609375q-1.8125 -1.8125 -3.921875 -1.734375l-0.015625 -0.015625q2.125 0.875 0.25 1.8125zm-3.1875 -1.46875q-1.609375 0.375 -3.28125 2.0625q-2.296875 2.28125 -2.296875 5.640625q0 1.953125 1.265625 3.203125q0.125 0.140625 0.484375 0.140625q0.359375 0 0.859375 -0.515625q2.03125 -2.03125 2.96875 -10.53125zm21.421875 17.015625l-2.59375 0l0 -4.125l-4.59375 0l0 -2.78125l4.59375 0l0 -0.59375l-1.375 0l-2.09375 0l0 -9.0625l3.46875 0l0 -0.59375l-4.21875 0l0 -2.78125l4.21875 0l0 -2.625l2.03125 0q2.046875 0.25 0.5625 1.3125l0 1.3125l4.3125 0l0 2.78125l-4.3125 0l0 0.59375l3.46875 0l0 9.0625l-3.46875 0l0 0.59375l4.59375 0l0 2.78125l-4.59375 0l0 4.125zm0 -10.0l0.875 0l0 -0.78125l-0.875 0l0 0.78125zm-3.46875 0l0.875 0l0 -0.78125l-0.875 0l0 0.78125zm0.875 -3.28125l0 -0.78125l-0.875 0l0 0.78125l0.875 0zm3.46875 0l0 -0.78125l-0.875 0l0 0.78125l0.875 0zm12.21875 9.75q0 0.0625 -0.03125 -0.21875l0.25 -2.390625l2.859375 0.4375l-0.328125 2.921875q-0.25 2.03125 -2.1875 2.03125l-1.21875 0q-2.1875 0 -2.1875 -2.09375l0 -11.6875l-1.25 0l0 1.46875q0 9.953125 -6.21875 13.328125l-1.546875 -2.671875q4.890625 -2.34375 4.890625 -10.5625l0 -1.5625l-2.625 0l0 -2.78125l2.625 0l0 -4.78125l2.3125 0q2.046875 0.25 0.5625 1.3125l0 3.46875l4.125 0l0 13.90625q-0.21875 0.09375 -0.21875 -0.125l0.1875 0zm14.25 2.96875q-3.109375 0 -5.34375 -2.15625q-1.65625 1.578125 -3.40625 2.65625l-1.46875 -3.078125l3.53125 -1.96875l0 -5.109375l-3.09375 0l0 -2.78125l5.96875 0l0 8.0q1.5 1.65625 4.375 1.65625l11.953125 0l-0.578125 2.78125l-11.9375 0zm-5.921875 -15.234375q-1.5 -2.1875 -3.828125 -4.421875l2.265625 -1.84375q2.5 2.1875 4.046875 4.203125l-2.484375 2.0625zm11.265625 -1.359375l-0.4375 0.78125l4.78125 0l0 12.71875l-2.59375 0l0 -0.65625l-6.40625 0l0 1.03125l-2.59375 0l0 -13.09375l3.8125 0l0.28125 -0.78125l-6.15625 0l0 -2.5l3.6875 0.03125q0 0.046875 -1.609375 -1.546875l2.28125 -1.71875q1.375 1.140625 2.65625 2.796875l-0.578125 0.4375l1.875 0l1.25 -3.25l2.625 0.46875q1.1875 1.203125 -0.21875 1.40625l-0.828125 1.375l4.671875 0l0 2.5l-6.5 0zm1.75 9.5625l-6.40625 0l0 0.78125l6.40625 0l0 -0.78125zm0 -3.09375l-6.40625 0l0 0.59375l6.40625 0l0 -0.59375zm0 -3.1875l-6.40625 0l0 0.6875l6.40625 0l0 -0.6875zm23.40625 -6.34375l4.21875 0l0 9.25l-4.125 0l0 0.625q0 0.515625 0.625 1.546875l2.84375 -2.84375l1.75 2.0q0.28125 1.453125 -0.84375 1.078125l-2.296875 1.78125q1.140625 1.5 4.0 3.296875l-1.53125 2.75q-3.453125 -2.21875 -4.546875 -4.15625l0 2.796875q0 1.90625 -1.625 1.90625l-2.171875 0l-0.625 -2.5l1.953125 0q0 0.125 -0.125 0.125l0 -8.40625l-1.5625 0l-2.46875 0l0 -9.25l3.65625 0l0.578125 -2.609375l2.5 0.46875q2.109375 0.796875 0.125 1.453125l-0.328125 0.6875zm-2.015625 10.84375l-0.328125 0.8125q-0.09375 5.453125 -4.734375 8.046875l-1.875 -2.171875q3.65625 -2.234375 3.796875 -4.8125l-2.40625 0l0 -2.5l3.015625 0l0.375 -0.375l2.15625 1.0zm-8.21875 -10.71875q-1.84375 3.0 -2.25 3.5625l0.4375 0.375l2.5 -3.890625l1.96875 1.34375q1.109375 1.125 -0.3125 1.328125q-2.421875 3.578125 -3.25 4.546875l1.140625 -0.109375l-0.546875 -1.09375l2.21875 -1.171875q1.71875 2.1875 2.53125 4.765625l-2.546875 1.125l-0.515625 -1.140625l-1.171875 0.171875l0 10.375l-2.875 0l0 -10.09375l-2.34375 0.140625q-1.09375 1.3125 -1.3125 -0.796875l-0.265625 -1.96875l2.203125 0l0.875 -1.1875l-2.890625 -2.328125l1.453125 -2.1875l0.46875 0.28125q1.59375 -2.484375 2.546875 -4.5l2.21875 1.109375q1.140625 1.140625 -0.28125 1.34375zm-6.109375 17.234375q0.8125 -3.875 0.8125 -6.453125l2.28125 0.25q2.21875 0.5625 0.5 1.296875q0 2.828125 -0.921875 6.3125l-2.671875 -1.40625zm12.40625 -13.984375l5.5625 0l0 -0.875l-5.5625 0l0 0.875zm5.5625 3.375l0 -0.875l-5.5625 0l0 0.875l5.5625 0zm-9.53125 4.046875q0.859375 1.84375 1.203125 4.90625l-2.796875 0.59375q-0.125 -2.125 -0.90625 -4.921875l2.5 -0.578125z" fill-rule="nonzero"/><path fill="#000000" fill-opacity="0.0" d="m364.70602 284.19946l175.84256 0l0 48.472443l-175.84256 0z" fill-rule="evenodd"/><path fill="#cc0000" d="m391.67477 298.17697l4.21875 0l0 9.25l-4.125 0l0 0.625q0 0.515625 0.625 1.546875l2.84375 -2.84375l1.75 2.0q0.28125 1.453125 -0.84375 1.078125l-2.296875 1.78125q1.140625 1.5 4.0 3.296875l-1.53125 2.75q-3.453125 -2.21875 -4.546875 -4.15625l0 2.796875q0 1.90625 -1.625 1.90625l-2.171875 0l-0.625 -2.5l1.953125 0q0 0.125 -0.125 0.125l0 -8.40625l-1.5625 0l-2.46875 0l0 -9.25l3.65625 0l0.578125 -2.609375l2.5 0.46875q2.109375 0.796875 0.125 1.453125l-0.328125 0.6875zm-2.015625 10.84375l-0.328125 0.8125q-0.09375 5.453125 -4.734375 8.046875l-1.875 -2.171875q3.65625 -2.234375 3.796875 -4.8125l-2.40625 0l0 -2.5l3.015625 0l0.375 -0.375l2.15625 1.0zm-8.21875 -10.71875q-1.84375 3.0 -2.25 3.5625l0.4375 0.375l2.5 -3.890625l1.96875 1.34375q1.109375 1.125 -0.3125 1.328125q-2.421875 3.578125 -3.25 4.546875l1.140625 -0.109375l-0.546875 -1.09375l2.21875 -1.171875q1.71875 2.1875 2.53125 4.765625l-2.546875 1.125l-0.515625 -1.140625l-1.171875 0.171875l0 10.375l-2.875 0l0 -10.09375l-2.34375 0.140625q-1.09375 1.3125 -1.3125 -0.796875l-0.265625 -1.96875l2.203125 0l0.875 -1.1875l-2.890625 -2.328125l1.453125 -2.1875l0.46875 0.28125q1.59375 -2.484375 2.546875 -4.5l2.21875 1.109375q1.140625 1.140625 -0.28125 1.34375zm-6.109375 17.234375q0.8125 -3.875 0.8125 -6.453125l2.28125 0.25q2.21875 0.5625 0.5 1.296875q0 2.828125 -0.921875 6.3125l-2.671875 -1.40625zm12.40625 -13.984375l5.5625 0l0 -0.875l-5.5625 0l0 0.875zm5.5625 3.375l0 -0.875l-5.5625 0l0 0.875l5.5625 0zm-9.53125 4.046875q0.859375 1.84375 1.203125 4.90625l-2.796875 0.59375q-0.125 -2.125 -0.90625 -4.921875l2.5 -0.578125z" fill-rule="nonzero"/><path fill="#cc0000" d="m407.15915 316.23947l-3.296875 0l0 -12.40625q-1.8125 1.6875 -4.25 2.484375l0 -2.984375q1.28125 -0.421875 2.796875 -1.59375q1.515625 -1.1875 2.078125 -2.75l2.671875 0l0 17.25z" fill-rule="nonzero"/><path fill="#cc0000" d="m424.9443 302.84885q-1.578125 9.28125 -3.9375 11.65625q-1.375 1.359375 -2.890625 1.359375q-1.703125 0 -2.703125 -0.984375q-2.390625 -2.40625 -2.390625 -5.984375q0 -4.328125 3.046875 -7.390625q3.34375 -3.328125 8.140625 -3.328125q4.328125 0 6.828125 2.484375q2.765625 2.78125 2.765625 6.546875q0 4.046875 -2.578125 6.640625q-1.65625 1.65625 -5.34375 3.328125l-2.796875 -2.796875q3.953125 -1.234375 5.734375 -3.03125q1.640625 -1.625 1.640625 -3.953125q0 -2.796875 -1.828125 -4.609375q-1.8125 -1.8125 -3.921875 -1.734375l-0.015625 -0.015625q2.125 0.875 0.25 1.8125zm-3.1875 -1.46875q-1.609375 0.375 -3.28125 2.0625q-2.296875 2.28125 -2.296875 5.640625q0 1.953125 1.265625 3.203125q0.125 0.140625 0.484375 0.140625q0.359375 0 0.859375 -0.515625q2.03125 -2.03125 2.96875 -10.53125zm21.421875 17.015625l-2.59375 0l0 -4.125l-4.59375 0l0 -2.78125l4.59375 0l0 -0.59375l-1.375 0l-2.09375 0l0 -9.0625l3.46875 0l0 -0.59375l-4.21875 0l0 -2.78125l4.21875 0l0 -2.625l2.03125 0q2.046875 0.25 0.5625 1.3125l0 1.3125l4.3125 0l0 2.78125l-4.3125 0l0 0.59375l3.46875 0l0 9.0625l-3.46875 0l0 0.59375l4.59375 0l0 2.78125l-4.59375 0l0 4.125zm0 -10.0l0.875 0l0 -0.78125l-0.875 0l0 0.78125zm-3.46875 0l0.875 0l0 -0.78125l-0.875 0l0 0.78125zm0.875 -3.28125l0 -0.78125l-0.875 0l0 0.78125l0.875 0zm3.46875 0l0 -0.78125l-0.875 0l0 0.78125l0.875 0zm12.21875 9.75q0 0.0625 -0.03125 -0.21875l0.25 -2.390625l2.859375 0.4375l-0.328125 2.921875q-0.25 2.03125 -2.1875 2.03125l-1.21875 0q-2.1875 0 -2.1875 -2.09375l0 -11.6875l-1.25 0l0 1.46875q0 9.953125 -6.21875 13.328125l-1.546875 -2.671875q4.890625 -2.34375 4.890625 -10.5625l0 -1.5625l-2.625 0l0 -2.78125l2.625 0l0 -4.78125l2.3125 0q2.046875 0.25 0.5625 1.3125l0 3.46875l4.125 0l0 13.90625q-0.21875 0.09375 -0.21875 -0.125l0.1875 0zm14.25 2.96875q-3.109375 0 -5.34375 -2.15625q-1.65625 1.578125 -3.40625 2.65625l-1.46875 -3.078125l3.53125 -1.96875l0 -5.109375l-3.09375 0l0 -2.78125l5.96875 0l0 8.0q1.5 1.65625 4.375 1.65625l11.953125 0l-0.578125 2.78125l-11.9375 0zm-5.921875 -15.234375q-1.5 -2.1875 -3.828125 -4.421875l2.265625 -1.84375q2.5 2.1875 4.046875 4.203125l-2.484375 2.0625zm11.265625 -1.359375l-0.4375 0.78125l4.78125 0l0 12.71875l-2.59375 0l0 -0.65625l-6.40625 0l0 1.03125l-2.59375 0l0 -13.09375l3.8125 0l0.28125 -0.78125l-6.15625 0l0 -2.5l3.6875 0.03125q0 0.046875 -1.609375 -1.546875l2.28125 -1.71875q1.375 1.140625 2.65625 2.796875l-0.578125 0.4375l1.875 0l1.25 -3.25l2.625 0.46875q1.1875 1.203125 -0.21875 1.40625l-0.828125 1.375l4.671875 0l0 2.5l-6.5 0zm1.75 9.5625l-6.40625 0l0 0.78125l6.40625 0l0 -0.78125zm0 -3.09375l-6.40625 0l0 0.59375l6.40625 0l0 -0.59375zm0 -3.1875l-6.40625 0l0 0.6875l6.40625 0l0 -0.6875zm23.40625 -6.34375l4.21875 0l0 9.25l-4.125 0l0 0.625q0 0.515625 0.625 1.546875l2.84375 -2.84375l1.75 2.0q0.28125 1.453125 -0.84375 1.078125l-2.296875 1.78125q1.140625 1.5 4.0 3.296875l-1.53125 2.75q-3.453125 -2.21875 -4.546875 -4.15625l0 2.796875q0 1.90625 -1.625 1.90625l-2.171875 0l-0.625 -2.5l1.953125 0q0 0.125 -0.125 0.125l0 -8.40625l-1.5625 0l-2.46875 0l0 -9.25l3.65625 0l0.578125 -2.609375l2.5 0.46875q2.109375 0.796875 0.125 1.453125l-0.328125 0.6875zm-2.015625 10.84375l-0.328125 0.8125q-0.09375 5.453125 -4.734375 8.046875l-1.875 -2.171875q3.65625 -2.234375 3.796875 -4.8125l-2.40625 0l0 -2.5l3.015625 0l0.375 -0.375l2.15625 1.0zm-8.21875 -10.71875q-1.84375 3.0 -2.25 3.5625l0.4375 0.375l2.5 -3.890625l1.96875 1.34375q1.109375 1.125 -0.3125 1.328125q-2.421875 3.578125 -3.25 4.546875l1.140625 -0.109375l-0.546875 -1.09375l2.21875 -1.171875q1.71875 2.1875 2.53125 4.765625l-2.546875 1.125l-0.515625 -1.140625l-1.171875 0.171875l0 10.375l-2.875 0l0 -10.09375l-2.34375 0.140625q-1.09375 1.3125 -1.3125 -0.796875l-0.265625 -1.96875l2.203125 0l0.875 -1.1875l-2.890625 -2.328125l1.453125 -2.1875l0.46875 0.28125q1.59375 -2.484375 2.546875 -4.5l2.21875 1.109375q1.140625 1.140625 -0.28125 1.34375zm-6.109375 17.234375q0.8125 -3.875 0.8125 -6.453125l2.28125 0.25q2.21875 0.5625 0.5 1.296875q0 2.828125 -0.921875 6.3125l-2.671875 -1.40625zm12.40625 -13.984375l5.5625 0l0 -0.875l-5.5625 0l0 0.875zm5.5625 3.375l0 -0.875l-5.5625 0l0 0.875l5.5625 0zm-9.53125 4.046875q0.859375 1.84375 1.203125 4.90625l-2.796875 0.59375q-0.125 -2.125 -0.90625 -4.921875l2.5 -0.578125z" fill-rule="nonzero"/><path fill="#000000" fill-opacity="0.0" d="m447.6273 397.95276c0 -22.910858 -3.34906 -45.74008 -3.34906 -68.65091" fill-rule="evenodd"/><path stroke="#cc0000" stroke-width="2.0" stroke-linejoin="round" stroke-linecap="butt" d="m447.6273 397.95276c0 -22.910858 -3.34906 -45.74008 -3.34906 -68.65091" fill-rule="evenodd"/></g></svg>